{
  "accessors": [
    {
      "bufferView": 2,
      "componentType": 5126,
      "count": 15933,
      "max": [
        15.230822563171387,
        2.9955117702484131,
        3.6877284049987793
      ],
      "min": [
        -15.230822563171387,
        -2.9176146984100342,
        -3.6877284049987793
      ],
      "type": "VEC3"
    },
    {
      "bufferView": 2,
      "byteOffset": 191196,
      "componentType": 5126,
      "count": 15933,
      "max": [
        0.99922949075698853,
        0.99999600648880005,
        0.99991095066070557
      ],
      "min": [
        -0.99993622303009033,
        -0.99993288516998291,
        -0.99999433755874634
      ],
      "type": "VEC3"
    },
    {
      "bufferView": 3,
      "componentType": 5126,
      "count": 15933,
      "max": [
        0.99998146295547485,
        0.99998152256011963,
        0.99995744228363037,
        1
      ],
      "min": [
        -0.99999827146530151,
        -0.99999958276748657,
        -0.99998873472213745,
        -1
      ],
      "type": "VEC4"
    },
    {
      "bufferView": 1,
      "componentType": 5126,
      "count": 15933,
      "max": [
        0.99891501665115356,
        0.98106133937835693
      ],
      "min": [
        0.0011155715910717845,
        0.0010695834644138813
      ],
      "type": "VEC2"
    },
    {
      "bufferView": 0,
      "componentType": 5125,
      "count": 89946,
      "max": [
        15932
      ],
      "min": [
        0
      ],
      "type": "SCALAR"
    }
  ],
  "asset": {
    "extras": {
      "author": "3dhdscan (https://sketchfab.com/3dhdscan)",
      "license": "CC-BY-4.0 (http://creativecommons.org/licenses/by/4.0/)",
      "source": "https://sketchfab.com/models/9b5db1cddf1e4fc399f47c80b31462c2",
      "title": "Wood Stick 09"
    },
    "generator": "Sketchfab-3.19.2",
    "version": "2.0"
  },
  "bufferViews": [
    {
      "buffer": 0,
      "byteLength": 359784,
      "byteOffset": 0,
      "name": "floatBufferViews",
      "target": 34963
    },
    {
      "buffer": 0,
      "byteLength": 127464,
      "byteOffset": 359784,
      "byteStride": 8,
      "name": "floatBufferViews",
      "target": 34962
    },
    {
      "buffer": 0,
      "byteLength": 382392,
      "byteOffset": 487248,
      "byteStride": 12,
      "name": "floatBufferViews",
      "target": 34962
    },
    {
      "buffer": 0,
      "byteLength": 254928,
      "byteOffset": 869640,
      "byteStride": 16,
      "name": "floatBufferViews",
      "target": 34962
    }
  ],
  "buffers": [
    {
      "byteLength": 1124568,
      "uri": "scene.bin"
    }
  ],
  "images": [
    {
      "uri": "textures/wood_stick_09_baseColor.jpeg"
    },
    {
      "uri": "textures/wood_stick_09_normal.jpeg"
    },
    {
      "uri": "textures/wood_stick_09_metallicRoughness.png"
    }
  ],
  "materials": [
    {
      "doubleSided": true,
      "name": "wood_stick_09",
      "normalTexture": {
        "index": 1,
        "scale": 1,
        "texCoord": 0
      },
      "occlusionTexture": {
        "index": 2,
        "strength": 1,
        "texCoord": 0
      },
      "pbrMetallicRoughness": {
        "baseColorFactor": [
          1,
          1,
          1,
          1
        ],
        "baseColorTexture": {
          "index": 0,
          "texCoord": 0
        },
        "metallicFactor": 0,
        "roughnessFactor": 0.90842690169999996
      }
    }
  ],
  "meshes": [
    {
      "name": "wood_stick_09_wood_stick_09_0",
      "primitives": [
        {
          "attributes": {
            "NORMAL": 1,
            "POSITION": 0,
            "TANGENT": 2,
            "TEXCOORD_0": 3
          },
          "indices": 4,
          "material": 0,
          "mode": 4
        }
      ]
    }
  ],
  "nodes": [
    {
      "children": [
        1
      ],
      "name": "RootNode (gltf orientation matrix)",
      "rotation": [
        -0.70710678118654746,
        -0,
        -0,
        0.70710678118654757
      ]
    },
    {
      "children": [
        2
      ],
      "matrix": [
        1,
        0,
        0,
        0,
        0,
        -1,
        0,
        0,
        0,
        0,
        -1,
        0,
        0,
        -2.9960870742797852,
        2.0384984016418457,
        1
      ],
      "name": "RootNode (model correction matrix)"
    },
    {
      "children": [
        3
      ],
      "matrix": [
        1,
        0,
        0,
        0,
        0,
        0,
        1,
        0,
        0,
        -1,
        0,
        0,
        0,
        0,
        0,
        1
      ],
      "name": "wood_stick_09.FBX"
    },
    {
      "children": [
        4
      ],
      "name": "RootNode"
    },
    {
      "children": [
        5
      ],
      "matrix": [
        1,
        0,
        0,
        0,
        0,
        2.2204460492503131e-16,
        -1,
        0,
        0,
        1,
        2.2204460492503131e-16,
        0,
        3.1094255447387695,
        1.0192528963088989,
        1.5369975566864014,
        1
      ],
      "name": "wood_stick_09"
    },
    {
      "mesh": 0,
      "name": "wood_stick_09_wood_stick_09_0"
    }
  ],
  "samplers": [
    {
      "magFilter": 9729,
      "minFilter": 9987,
      "wrapS": 33071,
      "wrapT": 33071
    },
    {
      "magFilter": 9729,
      "minFilter": 9987,
      "wrapS": 10497,
      "wrapT": 10497
    }
  ],
  "scene": 0,
  "scenes": [
    {
      "name": "OSG_Scene",
      "nodes": [
        0
      ]
    }
  ],
  "textures": [
    {
      "sampler": 0,
      "source": 0
    },
    {
      "sampler": 1,
      "source": 1
    },
    {
      "sampler": 1,
      "source": 2
    }
  ]
}

